<?xml version="1.0" standalone="no"?>
<!DOCTYPE svg PUBLIC "-//W3C//DTD SVG 20010904//EN"
 "http://www.w3.org/TR/2001/REC-SVG-20010904/DTD/svg10.dtd">
<svg version="1.0" xmlns="http://www.w3.org/2000/svg"
 width="37.000000pt" height="48.000000pt" viewBox="0 0 37.000000 48.000000"
 preserveAspectRatio="xMidYMid meet">
<metadata>
Created by potrace 1.11, written by Peter Selinger 2001-2013
</metadata>
<g transform="translate(0.000000,48.000000) scale(0.100000,-0.100000)"
fill="#000000" stroke="none">
<path d="M0 244 l0 -234 184 0 184 0 0 199 1 198 -37 36 -37 35 -147 0 -148 1
0 -235z m270 170 c0 -32 2 -34 33 -34 l34 0 -1 -167 -1 -168 -152 -3 -153 -3
0 204 0 203 120 1 120 1 0 -34z"/>
<path d="M74 381 c-15 -15 3 -22 51 -19 30 2 55 8 55 13 0 10 -97 15 -106 6z"/>
<path d="M70 321 c0 -14 15 -16 70 -13 27 2 47 8 44 13 -7 12 -114 12 -114 0z"/>
<path d="M268 319 c-9 -5 -15 -15 -13 -22 3 -6 1 -18 -4 -26 -8 -12 -15 -13
-34 -4 -22 10 -27 9 -39 -9 -12 -18 -16 -19 -35 -7 -19 11 -24 10 -42 -12 -30
-35 -27 -58 3 -30 20 19 28 21 45 11 19 -9 25 -8 40 12 17 20 21 21 36 8 15
-12 19 -11 36 10 10 14 19 29 19 33 0 5 5 5 10 2 6 -4 10 5 10 19 0 28 -6 31
-32 15z"/>
<path d="M70 159 c0 -11 1 -11 110 -11 114 0 120 1 120 11 0 5 -52 9 -115 9
-63 -1 -115 -5 -115 -9z"/>
<path d="M113 112 c-24 -2 -43 -7 -43 -13 0 -5 50 -9 115 -9 63 0 115 4 115 9
0 10 -117 18 -187 13z"/>
</g>
</svg>
